Blocksync-CondensedBold.ufo
<glyph name="quotedbl" format="2">
  <advance width="423"/>
  <unicode hex="0022"/>
  <outline>
    <contour>
      <point x="126" y="480" type="line" smooth="yes"/>
      <point x="160" y="480"/>
      <point x="165" y="491"/>
      <point x="171" y="526" type="curve" smooth="yes"/>
      <point x="173" y="529"/>
      <point x="194" y="660"/>
      <point x="194" y="686" type="curve" smooth="yes"/>
      <point x="194" y="754" type="line" smooth="yes"/>
      <point x="194" y="789"/>
      <point x="183" y="800"/>
      <point x="149" y="800" type="curve" smooth="yes"/>
      <point x="69" y="800" type="line" smooth="yes"/>
      <point x="34" y="800"/>
      <point x="23" y="789"/>
      <point x="23" y="754" type="curve" smooth="yes"/>
      <point x="23" y="686" type="line" smooth="yes"/>
      <point x="23" y="660"/>
      <point x="45" y="530"/>
      <point x="46" y="526" type="curve" smooth="yes"/>
      <point x="50" y="491"/>
      <point x="57" y="480"/>
      <point x="91" y="480" type="curve" smooth="yes"/>
    </contour>
    <contour>
      <point x="331" y="480" type="line" smooth="yes"/>
      <point x="366" y="480"/>
      <point x="370" y="491"/>
      <point x="377" y="526" type="curve" smooth="yes"/>
      <point x="378" y="529"/>
      <point x="400" y="660"/>
      <point x="400" y="686" type="curve" smooth="yes"/>
      <point x="400" y="754" type="line" smooth="yes"/>
      <point x="400" y="789"/>
      <point x="389" y="800"/>
      <point x="354" y="800" type="curve" smooth="yes"/>
      <point x="274" y="800" type="line" smooth="yes"/>
      <point x="240" y="800"/>
      <point x="229" y="789"/>
      <point x="229" y="754" type="curve" smooth="yes"/>
      <point x="229" y="686" type="line" smooth="yes"/>
      <point x="229" y="660"/>
      <point x="250" y="530"/>
      <point x="251" y="526" type="curve" smooth="yes"/>
      <point x="256" y="491"/>
      <point x="263" y="480"/>
      <point x="297" y="480" type="curve" smooth="yes"/>
    </contour>
  </outline>
</glyph>
<glyph name="dollar" format="2">
  <advance width="560"/>
  <unicode hex="0024"/>
  <outline>
    <contour>
      <point x="72" y="0" type="curve" smooth="yes"/>
      <point x="318" y="0" type="line" smooth="yes"/>
      <point x="467" y="0"/>
      <point x="536" y="69"/>
      <point x="536" y="217" type="curve" smooth="yes"/>
      <point x="536" y="583" type="line" smooth="yes"/>
      <point x="536" y="732"/>
      <point x="429" y="800"/>
      <point x="280" y="800" type="curve" smooth="yes"/>
      <point x="72" y="800" type="line" smooth="yes"/>
      <point x="40" y="800"/>
      <point x="32" y="784"/>
      <point x="32" y="760" type="curve" smooth="yes"/>
      <point x="32" y="40" type="line" smooth="yes"/>
      <point x="32" y="16"/>
      <point x="40" y="0"/>
    </contour>
    <contour>
      <point x="272" y="171" type="line" smooth="yes"/>
      <point x="248" y="171"/>
      <point x="240" y="179"/>
      <point x="240" y="203" type="curve" smooth="yes"/>
      <point x="240" y="600" type="line" smooth="yes"/>
      <point x="240" y="616"/>
      <point x="248" y="624"/>
      <point x="264" y="624" type="curve" smooth="yes"/>
      <point x="288" y="624" type="line" smooth="yes"/>
      <point x="322" y="624"/>
      <point x="328" y="629"/>
      <point x="328" y="584" type="curve" smooth="yes"/>
      <point x="328" y="229" type="line" smooth="yes"/>
      <point x="328" y="183"/>
      <point x="318" y="171"/>
      <point x="284" y="171" type="curve" smooth="yes"/>
    </contour>
  </outline>
</glyph>
<glyph name="ampersand" format="2">
  <advance width="583"/>
  <unicode hex="0026"/>
  <outline>
    <contour>
      <point x="526" y="0" type="line" smooth="yes"/>
      <point x="560" y="0"/>
      <point x="572" y="11"/>
      <point x="572" y="34" type="curve" smooth="yes"/>
      <point x="572" y="49"/>
      <point x="558" y="70"/>
      <point x="543" y="87" type="curve" smooth="yes"/>
      <point x="522" y="110"/>
      <point x="483" y="154"/>
      <point x="491" y="193" type="curve" smooth="yes"/>
      <point x="507" y="264"/>
      <point x="580" y="336"/>
      <point x="569" y="358" type="curve" smooth="yes"/>
      <point x="565" y="367"/>
      <point x="504" y="365"/>
      <point x="495" y="358" type="curve" smooth="yes"/>
      <point x="481" y="347"/>
      <point x="455" y="259"/>
      <point x="451" y="270" type="curve" smooth="yes"/>
      <point x="435" y="314"/>
      <point x="422" y="358"/>
      <point x="411" y="402" type="curve"/>
      <point x="389" y="426" type="line"/>
      <point x="411" y="447" type="line"/>
      <point x="457" y="447"/>
      <point x="526" y="526"/>
      <point x="526" y="594" type="curve" smooth="yes"/>
      <point x="526" y="743"/>
      <point x="423" y="800"/>
      <point x="274" y="800" type="curve" smooth="yes"/>
      <point x="126" y="800"/>
      <point x="34" y="743"/>
      <point x="34" y="594" type="curve" smooth="yes"/>
      <point x="34" y="560" type="line" smooth="yes"/>
      <point x="34" y="480"/>
      <point x="77" y="440"/>
      <point x="103" y="423" type="curve" smooth="yes"/>
      <point x="110" y="418"/>
      <point x="114" y="417"/>
      <point x="114" y="411" type="curve" smooth="yes"/>
      <point x="114" y="406"/>
      <point x="109" y="403"/>
      <point x="103" y="400" type="curve" smooth="yes"/>
      <point x="73" y="385"/>
      <point x="11" y="343"/>
      <point x="11" y="240" type="curve" smooth="yes"/>
      <point x="11" y="206" type="line" smooth="yes"/>
      <point x="11" y="69"/>
      <point x="80" y="-11"/>
      <point x="202" y="-11" type="curve" smooth="yes"/>
      <point x="301" y="-11"/>
      <point x="345" y="19"/>
      <point x="366" y="39" type="curve" smooth="yes"/>
      <point x="378" y="51"/>
      <point x="379" y="55"/>
      <point x="389" y="55" type="curve" smooth="yes"/>
      <point x="397" y="55"/>
      <point x="399" y="49"/>
      <point x="403" y="39" type="curve" smooth="yes"/>
      <point x="415" y="19"/>
      <point x="427" y="0"/>
      <point x="446" y="0" type="curve" smooth="yes"/>
    </contour>
    <contour>
      <point x="297" y="160" type="curve" smooth="yes"/>
      <point x="274" y="160" type="line" smooth="yes"/>
      <point x="240" y="160"/>
      <point x="229" y="171"/>
      <point x="229" y="229" type="curve" smooth="yes"/>
      <point x="229" y="263" type="line" smooth="yes"/>
      <point x="229" y="320"/>
      <point x="240" y="331"/>
      <point x="274" y="331" type="curve" smooth="yes"/>
      <point x="297" y="331" type="line" smooth="yes"/>
      <point x="314" y="331"/>
      <point x="320" y="326"/>
      <point x="320" y="309" type="curve" smooth="yes"/>
      <point x="320" y="183" type="line" smooth="yes"/>
      <point x="320" y="166"/>
      <point x="314" y="160"/>
    </contour>
    <contour>
      <point x="297" y="491" type="curve" smooth="yes"/>
      <point x="274" y="491" type="line" smooth="yes"/>
      <point x="240" y="491"/>
      <point x="229" y="503"/>
      <point x="229" y="549" type="curve" smooth="yes"/>
      <point x="229" y="583" type="line" smooth="yes"/>
      <point x="229" y="629"/>
      <point x="240" y="640"/>
      <point x="274" y="640" type="curve" smooth="yes"/>
      <point x="297" y="640" type="line" smooth="yes"/>
      <point x="314" y="640"/>
      <point x="320" y="634"/>
      <point x="320" y="617" type="curve" smooth="yes"/>
      <point x="320" y="514" type="line" smooth="yes"/>
      <point x="320" y="497"/>
      <point x="314" y="491"/>
    </contour>
  </outline>
</glyph>
<glyph name="asterisk" format="2">
  <advance width="418"/>
  <unicode hex="002A"/>
  <outline>
    <contour>
      <point x="117" y="449" type="line"/>
      <point x="129" y="442"/>
      <point x="145" y="445"/>
      <point x="152" y="455" type="curve"/>
      <point x="152" y="456"/>
      <point x="154" y="457"/>
      <point x="157" y="463" type="curve" smooth="yes"/>
      <point x="200" y="553" type="line" smooth="yes"/>
      <point x="203" y="560"/>
      <point x="205" y="566"/>
      <point x="209" y="566" type="curve" smooth="yes"/>
      <point x="214" y="566"/>
      <point x="215" y="560"/>
      <point x="218" y="553" type="curve" smooth="yes"/>
      <point x="262" y="463" type="line" smooth="yes"/>
      <point x="264" y="457"/>
      <point x="266" y="456"/>
      <point x="266" y="455" type="curve" smooth="yes"/>
      <point x="273" y="445"/>
      <point x="289" y="442"/>
      <point x="302" y="449" type="curve"/>
      <point x="338" y="477" type="line" smooth="yes"/>
      <point x="350" y="485"/>
      <point x="351" y="502"/>
      <point x="344" y="511" type="curve"/>
      <point x="344" y="512"/>
      <point x="342" y="514"/>
      <point x="337" y="519" type="curve" smooth="yes"/>
      <point x="262" y="589" type="line" smooth="yes"/>
      <point x="257" y="592"/>
      <point x="254" y="594"/>
      <point x="254" y="598" type="curve" smooth="yes"/>
      <point x="254" y="602"/>
      <point x="261" y="601"/>
      <point x="266" y="602" type="curve" smooth="yes"/>
      <point x="369" y="616" type="line" smooth="yes"/>
      <point x="375" y="617"/>
      <point x="377" y="618"/>
      <point x="378" y="618" type="curve" smooth="yes"/>
      <point x="390" y="622"/>
      <point x="398" y="637"/>
      <point x="394" y="650" type="curve"/>
      <point x="379" y="694" type="line" smooth="yes"/>
      <point x="375" y="706"/>
      <point x="360" y="713"/>
      <point x="349" y="710" type="curve"/>
      <point x="347" y="710"/>
      <point x="345" y="709"/>
      <point x="339" y="705" type="curve" smooth="yes"/>
      <point x="248" y="655" type="line" smooth="yes"/>
      <point x="243" y="653"/>
      <point x="239" y="647"/>
      <point x="233" y="647" type="curve" smooth="yes"/>
      <point x="227" y="647"/>
      <point x="235" y="660"/>
      <point x="237" y="665" type="curve" smooth="yes"/>
      <point x="256" y="766" type="line" smooth="yes"/>
      <point x="257" y="772"/>
      <point x="257" y="774"/>
      <point x="257" y="775" type="curve" smooth="yes"/>
      <point x="257" y="788"/>
      <point x="246" y="800"/>
      <point x="232" y="800" type="curve" smooth="yes"/>
      <point x="186" y="800" type="line" smooth="yes"/>
      <point x="173" y="800"/>
      <point x="161" y="788"/>
      <point x="161" y="775" type="curve" smooth="yes"/>
      <point x="161" y="774"/>
      <point x="161" y="772"/>
      <point x="162" y="766" type="curve" smooth="yes"/>
      <point x="181" y="666" type="line" smooth="yes"/>
      <point x="182" y="661"/>
      <point x="189" y="648"/>
      <point x="184" y="648" type="curve" smooth="yes"/>
      <point x="179" y="648"/>
      <point x="176" y="653"/>
      <point x="171" y="655" type="curve" smooth="yes"/>
      <point x="79" y="705" type="line" smooth="yes"/>
      <point x="73" y="709"/>
      <point x="71" y="710"/>
      <point x="70" y="710" type="curve"/>
      <point x="58" y="713"/>
      <point x="43" y="706"/>
      <point x="39" y="694" type="curve" smooth="yes"/>
      <point x="24" y="650" type="line"/>
      <point x="21" y="637"/>
      <point x="29" y="622"/>
      <point x="40" y="618" type="curve"/>
      <point x="41" y="618"/>
      <point x="43" y="617"/>
      <point x="49" y="616" type="curve" smooth="yes"/>
      <point x="150" y="604" type="line" smooth="yes"/>
      <point x="155" y="602"/>
      <point x="158" y="601"/>
      <point x="158" y="597" type="curve" smooth="yes"/>
      <point x="158" y="594"/>
      <point x="157" y="591"/>
      <point x="153" y="588" type="curve" smooth="yes"/>
      <point x="81" y="519" type="line" smooth="yes"/>
      <point x="77" y="514"/>
      <point x="74" y="512"/>
      <point x="74" y="511" type="curve" smooth="yes"/>
      <point x="67" y="502"/>
      <point x="69" y="485"/>
      <point x="80" y="477" type="curve" smooth="yes"/>
    </contour>
  </outline>
</glyph>
<glyph name="hyphen" format="2">
  <advance width="343"/>
  <unicode hex="002D"/>
  <outline>
    <contour>
      <point x="69" y="297" type="curve" smooth="yes"/>
      <point x="274" y="297" type="line" smooth="yes"/>
      <point x="309" y="297"/>
      <point x="320" y="309"/>
      <point x="320" y="343" type="curve" smooth="yes"/>
      <point x="320" y="423" type="line" smooth="yes"/>
      <point x="320" y="457"/>
      <point x="309" y="469"/>
      <point x="274" y="469" type="curve" smooth="yes"/>
      <point x="69" y="469" type="line" smooth="yes"/>
      <point x="34" y="469"/>
      <point x="23" y="457"/>
      <point x="23" y="423" type="curve" smooth="yes"/>
      <point x="23" y="343" type="line" smooth="yes"/>
      <point x="23" y="309"/>
      <point x="34" y="297"/>
    </contour>
  </outline>
</glyph>
<glyph name="zero" format="2">
  <advance width="542"/>
  <unicode hex="0030"/>
  <outline>
    <contour>
      <point x="271" y="-11" type="curve" smooth="yes"/>
      <point x="431" y="-11"/>
      <point x="522" y="69"/>
      <point x="522" y="229" type="curve" smooth="yes"/>
      <point x="522" y="572" type="line" smooth="yes"/>
      <point x="522" y="732"/>
      <point x="431" y="812"/>
      <point x="271" y="812" type="curve" smooth="yes"/>
      <point x="111" y="812"/>
      <point x="19" y="732"/>
      <point x="19" y="572" type="curve" smooth="yes"/>
      <point x="19" y="229" type="line" smooth="yes"/>
      <point x="19" y="69"/>
      <point x="111" y="-11"/>
    </contour>
    <contour>
      <point x="271" y="160" type="curve" smooth="yes"/>
      <point x="237" y="160"/>
      <point x="225" y="183"/>
      <point x="225" y="217" type="curve" smooth="yes"/>
      <point x="225" y="583" type="line" smooth="yes"/>
      <point x="225" y="617"/>
      <point x="237" y="640"/>
      <point x="271" y="640" type="curve" smooth="yes"/>
      <point x="305" y="640"/>
      <point x="317" y="617"/>
      <point x="317" y="583" type="curve" smooth="yes"/>
      <point x="317" y="217" type="line" smooth="yes"/>
      <point x="317" y="183"/>
      <point x="305" y="160"/>
    </contour>
  </outline>
</glyph>
<glyph name="six" format="2">
  <advance width="536"/>
  <unicode hex="0036"/>
  <outline>
    <contour>
      <point x="271" y="-11" type="curve" smooth="yes"/>
      <point x="431" y="-11"/>
      <point x="522" y="69"/>
      <point x="522" y="229" type="curve" smooth="yes"/>
      <point x="522" y="286" type="line" smooth="yes"/>
      <point x="522" y="418"/>
      <point x="446" y="478"/>
      <point x="347" y="478" type="curve" smooth="yes"/>
      <point x="269" y="478"/>
      <point x="251" y="454"/>
      <point x="237" y="454" type="curve" smooth="yes"/>
      <point x="229" y="454"/>
      <point x="225" y="457"/>
      <point x="225" y="472" type="curve" smooth="yes"/>
      <point x="225" y="594" type="line" smooth="yes"/>
      <point x="225" y="629"/>
      <point x="231" y="652"/>
      <point x="265" y="652" type="curve" smooth="yes"/>
      <point x="299" y="652"/>
      <point x="305" y="629"/>
      <point x="305" y="594" type="curve" smooth="yes"/>
      <point x="305" y="560"/>
      <point x="317" y="549"/>
      <point x="351" y="549" type="curve" smooth="yes"/>
      <point x="454" y="549" type="line" smooth="yes"/>
      <point x="488" y="549"/>
      <point x="499" y="560"/>
      <point x="499" y="594" type="curve" smooth="yes"/>
      <point x="499" y="720"/>
      <point x="431" y="812"/>
      <point x="271" y="812" type="curve" smooth="yes"/>
      <point x="111" y="812"/>
      <point x="19" y="732"/>
      <point x="19" y="572" type="curve" smooth="yes"/>
      <point x="19" y="229" type="line" smooth="yes"/>
      <point x="19" y="69"/>
      <point x="111" y="-11"/>
    </contour>
    <contour>
      <point x="271" y="160" type="curve" smooth="yes"/>
      <point x="237" y="160"/>
      <point x="225" y="183"/>
      <point x="225" y="217" type="curve" smooth="yes"/>
      <point x="225" y="286" type="line" smooth="yes"/>
      <point x="225" y="320"/>
      <point x="237" y="343"/>
      <point x="271" y="343" type="curve" smooth="yes"/>
      <point x="305" y="343"/>
      <point x="317" y="320"/>
      <point x="317" y="286" type="curve" smooth="yes"/>
      <point x="317" y="217" type="line" smooth="yes"/>
      <point x="317" y="183"/>
      <point x="305" y="160"/>
    </contour>
  </outline>
</glyph>
<glyph name="seven" format="2">
  <advance width="491"/>
  <unicode hex="0037"/>
  <outline>
    <contour>
      <point x="126" y="0" type="curve" smooth="yes"/>
      <point x="240" y="0" type="line" smooth="yes"/>
      <point x="274" y="0"/>
      <point x="286" y="11"/>
      <point x="286" y="46" type="curve" smooth="yes"/>
      <point x="286" y="237"/>
      <point x="286" y="448"/>
      <point x="437" y="606" type="curve" smooth="yes"/>
      <point x="464" y="636"/>
      <point x="480" y="647"/>
      <point x="480" y="686" type="curve" smooth="yes"/>
      <point x="480" y="754" type="line" smooth="yes"/>
      <point x="480" y="789"/>
      <point x="469" y="800"/>
      <point x="434" y="800" type="curve" smooth="yes"/>
      <point x="57" y="800" type="line" smooth="yes"/>
      <point x="23" y="800"/>
      <point x="11" y="789"/>
      <point x="11" y="754" type="curve" smooth="yes"/>
      <point x="11" y="674" type="line" smooth="yes"/>
      <point x="11" y="640"/>
      <point x="23" y="629"/>
      <point x="57" y="629" type="curve" smooth="yes"/>
      <point x="232" y="629" type="line" smooth="yes"/>
      <point x="243" y="629"/>
      <point x="249" y="626"/>
      <point x="249" y="616" type="curve" smooth="yes"/>
      <point x="249" y="607"/>
      <point x="241" y="598"/>
      <point x="235" y="590" type="curve" smooth="yes"/>
      <point x="128" y="432"/>
      <point x="80" y="235"/>
      <point x="80" y="46" type="curve" smooth="yes"/>
      <point x="80" y="11"/>
      <point x="91" y="0"/>
    </contour>
  </outline>
</glyph>
<glyph name="at" format="2">
  <advance width="686"/>
  <unicode hex="0040"/>
  <outline>
    <contour>
      <point x="474" y="14" type="curve" smooth="yes"/>
      <point x="629" y="14"/>
      <point x="662" y="178"/>
      <point x="662" y="297" type="curve" smooth="yes"/>
      <point x="662" y="427"/>
      <point x="594" y="597"/>
      <point x="353" y="597" type="curve" smooth="yes"/>
      <point x="112" y="597"/>
      <point x="16" y="442"/>
      <point x="16" y="264" type="curve" smooth="yes"/>
      <point x="16" y="17"/>
      <point x="111" y="-82"/>
      <point x="287" y="-82" type="curve" smooth="yes"/>
      <point x="320" y="-82"/>
      <point x="335" y="-67"/>
      <point x="335" y="-46" type="curve" smooth="yes"/>
      <point x="335" y="0" type="line" smooth="yes"/>
      <point x="335" y="23"/>
      <point x="321" y="31"/>
      <point x="288" y="31" type="curve" smooth="yes"/>
      <point x="254" y="31"/>
      <point x="137" y="81"/>
      <point x="139" y="258" type="curve" smooth="yes"/>
      <point x="142" y="447"/>
      <point x="255" y="481"/>
      <point x="353" y="483" type="curve" smooth="yes"/>
      <point x="451" y="486"/>
      <point x="553" y="434"/>
      <point x="553" y="297" type="curve" smooth="yes"/>
      <point x="553" y="186"/>
      <point x="535" y="134"/>
      <point x="507" y="142" type="curve" smooth="yes"/>
      <point x="488" y="142"/>
      <point x="483" y="163"/>
      <point x="481" y="256" type="curve" smooth="yes"/>
      <point x="480" y="294"/>
      <point x="482" y="343"/>
      <point x="481" y="381" type="curve" smooth="yes"/>
      <point x="481" y="392"/>
      <point x="477" y="413"/>
      <point x="461" y="413" type="curve" smooth="yes"/>
      <point x="427" y="413" type="line" smooth="yes"/>
      <point x="411" y="413"/>
      <point x="401" y="394"/>
      <point x="393" y="394" type="curve" smooth="yes"/>
      <point x="381" y="394"/>
      <point x="373" y="403"/>
      <point x="344" y="403" type="curve" smooth="yes"/>
      <point x="259" y="405"/>
      <point x="194" y="375"/>
      <point x="194" y="255" type="curve" smooth="yes"/>
      <point x="194" y="136"/>
      <point x="245" y="87"/>
      <point x="307" y="87" type="curve" smooth="yes"/>
      <point x="358" y="87"/>
      <point x="366" y="101"/>
      <point x="381" y="101" type="curve" smooth="yes"/>
      <point x="393" y="88"/>
      <point x="397" y="14"/>
    </contour>
    <contour>
      <point x="359" y="166" type="curve" smooth="yes"/>
      <point x="347" y="166" type="line" smooth="yes"/>
      <point x="314" y="166"/>
      <point x="303" y="176"/>
      <point x="303" y="218" type="curve" smooth="yes"/>
      <point x="303" y="270" type="line" smooth="yes"/>
      <point x="303" y="311"/>
      <point x="314" y="321"/>
      <point x="347" y="321" type="curve" smooth="yes"/>
      <point x="359" y="321" type="line" smooth="yes"/>
      <point x="376" y="321"/>
      <point x="382" y="315"/>
      <point x="382" y="302" type="curve" smooth="yes"/>
      <point x="382" y="187" type="line" smooth="yes"/>
      <point x="382" y="170"/>
      <point x="376" y="166"/>
    </contour>
  </outline>
</glyph>
<glyph name="A" format="2">
  <advance width="549"/>
  <unicode hex="0041"/>
  <anchor x="274" y="0" name="bottom"/>
  <anchor x="274" y="800" name="top"/>
  <outline>
    <contour>
      <point x="57" y="0" type="curve" smooth="yes"/>
      <point x="174" y="0" type="line" smooth="yes"/>
      <point x="197" y="0"/>
      <point x="216" y="10"/>
      <point x="219" y="46" type="curve" smooth="yes"/>
      <point x="229" y="137" type="line" smooth="yes"/>
      <point x="231" y="154"/>
      <point x="234" y="160"/>
      <point x="251" y="160" type="curve" smooth="yes"/>
      <point x="297" y="160" type="line" smooth="yes"/>
      <point x="314" y="160"/>
      <point x="318" y="154"/>
      <point x="320" y="137" type="curve" smooth="yes"/>
      <point x="329" y="46" type="line" smooth="yes"/>
      <point x="333" y="10"/>
      <point x="352" y="0"/>
      <point x="375" y="0" type="curve" smooth="yes"/>
      <point x="491" y="0" type="line" smooth="yes"/>
      <point x="526" y="0"/>
      <point x="537" y="11"/>
      <point x="537" y="46" type="curve" smooth="yes"/>
      <point x="537" y="69"/>
      <point x="529" y="114"/>
      <point x="526" y="137" type="curve" smooth="yes"/>
      <point x="434" y="754" type="line" smooth="yes"/>
      <point x="430" y="789"/>
      <point x="411" y="800"/>
      <point x="377" y="800" type="curve" smooth="yes"/>
      <point x="171" y="800" type="line" smooth="yes"/>
      <point x="137" y="800"/>
      <point x="119" y="789"/>
      <point x="114" y="754" type="curve" smooth="yes"/>
      <point x="23" y="137" type="line" smooth="yes"/>
      <point x="19" y="114"/>
      <point x="11" y="69"/>
      <point x="11" y="46" type="curve" smooth="yes"/>
      <point x="11" y="11"/>
      <point x="23" y="0"/>
    </contour>
    <contour>
      <point x="263" y="331" type="line" smooth="yes"/>
      <point x="245" y="331"/>
      <point x="240" y="337"/>
      <point x="240" y="350" type="curve" smooth="yes"/>
      <point x="240" y="358"/>
      <point x="241" y="366"/>
      <point x="242" y="378" type="curve" smooth="yes"/>
      <point x="263" y="606" type="line" smooth="yes"/>
      <point x="264" y="621"/>
      <point x="267" y="629"/>
      <point x="274" y="629" type="curve" smooth="yes"/>
      <point x="281" y="629"/>
      <point x="285" y="621"/>
      <point x="286" y="606" type="curve" smooth="yes"/>
      <point x="306" y="378" type="line" smooth="yes"/>
      <point x="307" y="366"/>
      <point x="309" y="358"/>
      <point x="309" y="350" type="curve" smooth="yes"/>
      <point x="309" y="337"/>
      <point x="303" y="331"/>
      <point x="286" y="331" type="curve" smooth="yes"/>
    </contour>
  </outline>
</glyph>
<glyph name="B" format="2">
  <advance width="549"/>
  <unicode hex="0042"/>
  <outline>
    <contour>
      <point x="67" y="0" type="curve" smooth="yes"/>
      <point x="320" y="0" type="line" smooth="yes"/>
      <point x="469" y="0"/>
      <point x="537" y="69"/>
      <point x="537" y="206" type="curve" smooth="yes"/>
      <point x="537" y="240" type="line" smooth="yes"/>
      <point x="537" y="343"/>
      <point x="475" y="385"/>
      <point x="446" y="400" type="curve" smooth="yes"/>
      <point x="440" y="403"/>
      <point x="434" y="406"/>
      <point x="434" y="411" type="curve" smooth="yes"/>
      <point x="434" y="417"/>
      <point x="439" y="418"/>
      <point x="446" y="423" type="curve" smooth="yes"/>
      <point x="472" y="440"/>
      <point x="514" y="480"/>
      <point x="514" y="560" type="curve" smooth="yes"/>
      <point x="514" y="594" type="line" smooth="yes"/>
      <point x="514" y="743"/>
      <point x="423" y="800"/>
      <point x="274" y="800" type="curve" smooth="yes"/>
      <point x="69" y="800" type="line" smooth="yes"/>
      <point x="34" y="800"/>
      <point x="23" y="789"/>
      <point x="23" y="754" type="curve" smooth="yes"/>
      <point x="23" y="46" type="line" smooth="yes"/>
      <point x="23" y="11"/>
      <point x="33" y="0"/>
    </contour>
    <contour>
      <point x="251" y="160" type="line" smooth="yes"/>
      <point x="234" y="160"/>
      <point x="229" y="166"/>
      <point x="229" y="183" type="curve" smooth="yes"/>
      <point x="229" y="309" type="line" smooth="yes"/>
      <point x="229" y="326"/>
      <point x="234" y="331"/>
      <point x="251" y="331" type="curve" smooth="yes"/>
      <point x="274" y="331" type="line" smooth="yes"/>
      <point x="309" y="331"/>
      <point x="320" y="320"/>
      <point x="320" y="263" type="curve" smooth="yes"/>
      <point x="320" y="229" type="line" smooth="yes"/>
      <point x="320" y="171"/>
      <point x="309" y="160"/>
      <point x="274" y="160" type="curve" smooth="yes"/>
    </contour>
    <contour>
      <point x="251" y="491" type="line" smooth="yes"/>
      <point x="234" y="491"/>
      <point x="229" y="497"/>
      <point x="229" y="514" type="curve" smooth="yes"/>
      <point x="229" y="617" type="line" smooth="yes"/>
      <point x="229" y="634"/>
      <point x="234" y="640"/>
      <point x="251" y="640" type="curve" smooth="yes"/>
      <point x="274" y="640" type="line" smooth="yes"/>
      <point x="309" y="640"/>
      <point x="320" y="629"/>
      <point x="320" y="583" type="curve" smooth="yes"/>
      <point x="320" y="549" type="line" smooth="yes"/>
      <point x="320" y="503"/>
      <point x="309" y="491"/>
      <point x="274" y="491" type="curve" smooth="yes"/>
    </contour>
  </outline>
</glyph>
<glyph name="D" format="2">
  <advance width="576"/>
  <unicode hex="0044"/>
  <anchor x="288" y="800" name="top"/>
  <outline>
    <contour>
      <point x="80" y="0" type="curve" smooth="yes"/>
      <point x="326" y="0" type="line" smooth="yes"/>
      <point x="475" y="0"/>
      <point x="536" y="69"/>
      <point x="536" y="217" type="curve" smooth="yes"/>
      <point x="536" y="583" type="line" smooth="yes"/>
      <point x="536" y="732"/>
      <point x="437" y="800"/>
      <point x="288" y="800" type="curve" smooth="yes"/>
      <point x="80" y="800" type="line" smooth="yes"/>
      <point x="48" y="800"/>
      <point x="40" y="784"/>
      <point x="40" y="760" type="curve" smooth="yes"/>
      <point x="40" y="40" type="line" smooth="yes"/>
      <point x="40" y="16"/>
      <point x="48" y="0"/>
    </contour>
    <contour>
      <point x="280" y="171" type="line" smooth="yes"/>
      <point x="256" y="171"/>
      <point x="248" y="179"/>
      <point x="248" y="203" type="curve" smooth="yes"/>
      <point x="248" y="600" type="line" smooth="yes"/>
      <point x="248" y="616"/>
      <point x="256" y="624"/>
      <point x="272" y="624" type="curve" smooth="yes"/>
      <point x="296" y="624" type="line" smooth="yes"/>
      <point x="328" y="624"/>
      <point x="328" y="608"/>
      <point x="328" y="584" type="curve" smooth="yes"/>
      <point x="328" y="229" type="line" smooth="yes"/>
      <point x="328" y="183"/>
      <point x="326" y="171"/>
      <point x="292" y="171" type="curve" smooth="yes"/>
    </contour>
  </outline>
</glyph>
<glyph name="E" format="2">
  <advance width="434"/>
  <unicode hex="0045"/>
  <anchor x="230" y="800" name="top"/>
  <outline>
    <contour>
      <point x="80" y="0" type="curve" smooth="yes"/>
      <point x="366" y="0" type="line" smooth="yes"/>
      <point x="400" y="0"/>
      <point x="411" y="11"/>
      <point x="411" y="46" type="curve" smooth="yes"/>
      <point x="411" y="126" type="line" smooth="yes"/>
      <point x="411" y="160"/>
      <point x="400" y="171"/>
      <point x="366" y="171" type="curve" smooth="yes"/>
      <point x="263" y="171" type="line" smooth="yes"/>
      <point x="246" y="171"/>
      <point x="240" y="177"/>
      <point x="240" y="194" type="curve" smooth="yes"/>
      <point x="240" y="309" type="line" smooth="yes"/>
      <point x="240" y="326"/>
      <point x="246" y="331"/>
      <point x="263" y="331" type="curve" smooth="yes"/>
      <point x="331" y="331" type="line" smooth="yes"/>
      <point x="366" y="331"/>
      <point x="377" y="343"/>
      <point x="377" y="377" type="curve" smooth="yes"/>
      <point x="377" y="446" type="line" smooth="yes"/>
      <point x="377" y="480"/>
      <point x="366" y="491"/>
      <point x="331" y="491" type="curve" smooth="yes"/>
      <point x="263" y="491" type="line" smooth="yes"/>
      <point x="246" y="491"/>
      <point x="240" y="497"/>
      <point x="240" y="514" type="curve" smooth="yes"/>
      <point x="240" y="606" type="line" smooth="yes"/>
      <point x="240" y="623"/>
      <point x="246" y="629"/>
      <point x="263" y="629" type="curve" smooth="yes"/>
      <point x="366" y="629" type="line" smooth="yes"/>
      <point x="400" y="629"/>
      <point x="411" y="640"/>
      <point x="411" y="674" type="curve" smooth="yes"/>
      <point x="411" y="754" type="line" smooth="yes"/>
      <point x="411" y="789"/>
      <point x="400" y="800"/>
      <point x="366" y="800" type="curve" smooth="yes"/>
      <point x="80" y="800" type="line" smooth="yes"/>
      <point x="46" y="800"/>
      <point x="34" y="789"/>
      <point x="34" y="754" type="curve" smooth="yes"/>
      <point x="34" y="46" type="line" smooth="yes"/>
      <point x="34" y="11"/>
      <point x="46" y="0"/>
    </contour>
  </outline>
</glyph>
<glyph name="F" format="2">
  <advance width="434"/>
  <unicode hex="0046"/>
  <outline>
    <contour>
      <point x="69" y="0" type="curve" smooth="yes"/>
      <point x="183" y="0" type="line" smooth="yes"/>
      <point x="217" y="0"/>
      <point x="229" y="11"/>
      <point x="229" y="46" type="curve" smooth="yes"/>
      <point x="229" y="309" type="line" smooth="yes"/>
      <point x="229" y="326"/>
      <point x="234" y="331"/>
      <point x="251" y="331" type="curve" smooth="yes"/>
      <point x="331" y="331" type="line" smooth="yes"/>
      <point x="366" y="331"/>
      <point x="377" y="343"/>
      <point x="377" y="377" type="curve" smooth="yes"/>
      <point x="377" y="446" type="line" smooth="yes"/>
      <point x="377" y="480"/>
      <point x="366" y="491"/>
      <point x="331" y="491" type="curve" smooth="yes"/>
      <point x="251" y="491" type="line" smooth="yes"/>
      <point x="234" y="491"/>
      <point x="229" y="497"/>
      <point x="229" y="514" type="curve" smooth="yes"/>
      <point x="229" y="606" type="line" smooth="yes"/>
      <point x="229" y="623"/>
      <point x="234" y="629"/>
      <point x="251" y="629" type="curve" smooth="yes"/>
      <point x="377" y="629" type="line" smooth="yes"/>
      <point x="411" y="629"/>
      <point x="423" y="640"/>
      <point x="423" y="674" type="curve" smooth="yes"/>
      <point x="423" y="754" type="line" smooth="yes"/>
      <point x="423" y="789"/>
      <point x="411" y="800"/>
      <point x="377" y="800" type="curve" smooth="yes"/>
      <point x="69" y="800" type="line" smooth="yes"/>
      <point x="34" y="800"/>
      <point x="23" y="789"/>
      <point x="23" y="754" type="curve" smooth="yes"/>
      <point x="23" y="46" type="line" smooth="yes"/>
      <point x="23" y="11"/>
      <point x="34" y="0"/>
    </contour>
  </outline>
</glyph>
<glyph name="I" format="2">
  <advance width="288"/>
  <unicode hex="0049"/>
  <anchor x="143" y="800" name="top"/>
  <outline>
    <contour>
      <point x="86" y="0" type="curve" smooth="yes"/>
      <point x="202" y="0" type="line" smooth="yes"/>
      <point x="237" y="0"/>
      <point x="248" y="11"/>
      <point x="248" y="46" type="curve" smooth="yes"/>
      <point x="248" y="754" type="line" smooth="yes"/>
      <point x="248" y="789"/>
      <point x="237" y="800"/>
      <point x="202" y="800" type="curve" smooth="yes"/>
      <point x="86" y="800" type="line" smooth="yes"/>
      <point x="52" y="800"/>
      <point x="40" y="789"/>
      <point x="40" y="754" type="curve" smooth="yes"/>
      <point x="40" y="46" type="line" smooth="yes"/>
      <point x="40" y="11"/>
      <point x="52" y="0"/>
    </contour>
  </outline>
</glyph>
<glyph name="J" format="2">
  <advance width="349"/>
  <unicode hex="004A"/>
  <outline>
    <contour>
      <point x="57" y="0" type="curve" smooth="yes"/>
      <point x="161" y="0" type="line" smooth="yes"/>
      <point x="321" y="0"/>
      <point x="331" y="69"/>
      <point x="331" y="229" type="curve" smooth="yes"/>
      <point x="331" y="754" type="line" smooth="yes"/>
      <point x="331" y="789"/>
      <point x="320" y="800"/>
      <point x="286" y="800" type="curve" smooth="yes"/>
      <point x="171" y="800" type="line" smooth="yes"/>
      <point x="137" y="800"/>
      <point x="126" y="789"/>
      <point x="126" y="754" type="curve" smooth="yes"/>
      <point x="126" y="194" type="line" smooth="yes"/>
      <point x="126" y="177"/>
      <point x="120" y="171"/>
      <point x="103" y="171" type="curve" smooth="yes"/>
      <point x="57" y="171" type="line" smooth="yes"/>
      <point x="23" y="171"/>
      <point x="11" y="160"/>
      <point x="11" y="126" type="curve" smooth="yes"/>
      <point x="11" y="46" type="line" smooth="yes"/>
      <point x="11" y="11"/>
      <point x="23" y="0"/>
    </contour>
  </outline>
</glyph>
<glyph name="K" format="2">
  <advance width="549"/>
  <unicode hex="004B"/>
  <anchor x="269" y="0" name="bottom"/>
  <outline>
    <contour>
      <point x="69" y="-1" type="curve" smooth="yes"/>
      <point x="183" y="0" type="line" smooth="yes"/>
      <point x="217" y="0"/>
      <point x="229" y="11"/>
      <point x="229" y="46" type="curve" smooth="yes"/>
      <point x="229" y="331" type="line" smooth="yes"/>
      <point x="229" y="339"/>
      <point x="232" y="343"/>
      <point x="240" y="343" type="curve" smooth="yes"/>
      <point x="246" y="343"/>
      <point x="253" y="339"/>
      <point x="257" y="320" type="curve" smooth="yes"/>
      <point x="327" y="46" type="line" smooth="yes"/>
      <point x="336" y="11"/>
      <point x="350" y="0"/>
      <point x="384" y="0" type="curve" smooth="yes"/>
      <point x="490" y="0" type="line" smooth="yes"/>
      <point x="525" y="0"/>
      <point x="536" y="11"/>
      <point x="536" y="46" type="curve" smooth="yes"/>
      <point x="536" y="69"/>
      <point x="530" y="89"/>
      <point x="521" y="120" type="curve" smooth="yes"/>
      <point x="439" y="395" type="line" smooth="yes"/>
      <point x="432" y="419"/>
      <point x="433" y="435"/>
      <point x="433" y="447" type="curve" smooth="yes"/>
      <point x="433" y="458"/>
      <point x="439" y="477"/>
      <point x="450" y="510" type="curve" smooth="yes"/>
      <point x="514" y="689" type="line" smooth="yes"/>
      <point x="521" y="708"/>
      <point x="537" y="750"/>
      <point x="537" y="766" type="curve" smooth="yes"/>
      <point x="537" y="789"/>
      <point x="526" y="800"/>
      <point x="491" y="800" type="curve" smooth="yes"/>
      <point x="384" y="800" type="line" smooth="yes"/>
      <point x="353" y="800"/>
      <point x="338" y="791"/>
      <point x="327" y="754" type="curve" smooth="yes"/>
      <point x="257" y="537" type="line" smooth="yes"/>
      <point x="253" y="522"/>
      <point x="246" y="514"/>
      <point x="240" y="514" type="curve" smooth="yes"/>
      <point x="232" y="514"/>
      <point x="229" y="518"/>
      <point x="229" y="526" type="curve" smooth="yes"/>
      <point x="229" y="754" type="line" smooth="yes"/>
      <point x="229" y="789"/>
      <point x="217" y="800"/>
      <point x="183" y="800" type="curve" smooth="yes"/>
      <point x="69" y="800" type="line" smooth="yes"/>
      <point x="34" y="800"/>
      <point x="23" y="789"/>
      <point x="23" y="754" type="curve" smooth="yes"/>
      <point x="23" y="46" type="line" smooth="yes"/>
      <point x="23" y="11"/>
      <point x="34" y="-1"/>
    </contour>
  </outline>
</glyph>
<glyph name="L" format="2">
  <advance width="400"/>
  <unicode hex="004C"/>
  <anchor x="211" y="0" name="bottom"/>
  <anchor x="223" y="800" name="topright"/>
  <outline>
    <contour>
      <point x="69" y="0" type="curve" smooth="yes"/>
      <point x="343" y="0" type="line" smooth="yes"/>
      <point x="377" y="0"/>
      <point x="389" y="11"/>
      <point x="389" y="46" type="curve" smooth="yes"/>
      <point x="389" y="126" type="line" smooth="yes"/>
      <point x="389" y="160"/>
      <point x="377" y="171"/>
      <point x="343" y="171" type="curve" smooth="yes"/>
      <point x="251" y="171" type="line" smooth="yes"/>
      <point x="234" y="171"/>
      <point x="229" y="177"/>
      <point x="229" y="194" type="curve" smooth="yes"/>
      <point x="229" y="754" type="line" smooth="yes"/>
      <point x="229" y="789"/>
      <point x="217" y="800"/>
      <point x="183" y="800" type="curve" smooth="yes"/>
      <point x="69" y="800" type="line" smooth="yes"/>
      <point x="34" y="800"/>
      <point x="23" y="789"/>
      <point x="23" y="754" type="curve" smooth="yes"/>
      <point x="23" y="46" type="line" smooth="yes"/>
      <point x="23" y="11"/>
      <point x="34" y="0"/>
    </contour>
  </outline>
</glyph>
<glyph name="M" format="2">
  <advance width="686"/>
  <unicode hex="004D"/>
  <outline>
    <contour>
      <point x="69" y="0" type="curve" smooth="yes"/>
      <point x="171" y="0" type="line" smooth="yes"/>
      <point x="206" y="0"/>
      <point x="217" y="11"/>
      <point x="217" y="46" type="curve" smooth="yes"/>
      <point x="217" y="422" type="line" smooth="yes"/>
      <point x="217" y="438"/>
      <point x="221" y="446"/>
      <point x="232" y="446" type="curve" smooth="yes"/>
      <point x="243" y="446"/>
      <point x="248" y="438"/>
      <point x="251" y="406" type="curve" smooth="yes"/>
      <point x="286" y="46" type="line" smooth="yes"/>
      <point x="288" y="21"/>
      <point x="291" y="0"/>
      <point x="314" y="0" type="curve" smooth="yes"/>
      <point x="371" y="0" type="line" smooth="yes"/>
      <point x="394" y="0"/>
      <point x="398" y="23"/>
      <point x="400" y="46" type="curve" smooth="yes"/>
      <point x="434" y="406" type="line" smooth="yes"/>
      <point x="438" y="438"/>
      <point x="442" y="446"/>
      <point x="453" y="446" type="curve" smooth="yes"/>
      <point x="464" y="446"/>
      <point x="469" y="438"/>
      <point x="469" y="422" type="curve" smooth="yes"/>
      <point x="469" y="46" type="line" smooth="yes"/>
      <point x="469" y="11"/>
      <point x="480" y="0"/>
      <point x="514" y="0" type="curve" smooth="yes"/>
      <point x="617" y="0" type="line" smooth="yes"/>
      <point x="652" y="0"/>
      <point x="663" y="11"/>
      <point x="663" y="46" type="curve" smooth="yes"/>
      <point x="663" y="754" type="line" smooth="yes"/>
      <point x="663" y="789"/>
      <point x="652" y="800"/>
      <point x="617" y="800" type="curve" smooth="yes"/>
      <point x="451" y="800" type="line" smooth="yes"/>
      <point x="423" y="800"/>
      <point x="398" y="788"/>
      <point x="394" y="754" type="curve" smooth="yes"/>
      <point x="359" y="387" type="line" smooth="yes"/>
      <point x="357" y="361"/>
      <point x="352" y="354"/>
      <point x="343" y="354" type="curve" smooth="yes"/>
      <point x="334" y="354"/>
      <point x="329" y="361"/>
      <point x="327" y="387" type="curve" smooth="yes"/>
      <point x="291" y="754" type="line" smooth="yes"/>
      <point x="288" y="786"/>
      <point x="263" y="800"/>
      <point x="234" y="800" type="curve" smooth="yes"/>
      <point x="69" y="800" type="line" smooth="yes"/>
      <point x="34" y="800"/>
      <point x="23" y="789"/>
      <point x="23" y="754" type="curve" smooth="yes"/>
      <point x="23" y="46" type="line" smooth="yes"/>
      <point x="23" y="11"/>
      <point x="34" y="0"/>
    </contour>
  </outline>
</glyph>
<glyph name="P" format="2">
  <advance width="537"/>
  <unicode hex="0050"/>
  <outline>
    <contour>
      <point x="80" y="0" type="curve" smooth="yes"/>
      <point x="206" y="0" type="line" smooth="yes"/>
      <point x="240" y="0"/>
      <point x="251" y="11"/>
      <point x="251" y="46" type="curve" smooth="yes"/>
      <point x="251" y="274" type="line" smooth="yes"/>
      <point x="251" y="291"/>
      <point x="257" y="297"/>
      <point x="274" y="297" type="curve" smooth="yes"/>
      <point x="286" y="297" type="line" smooth="yes"/>
      <point x="434" y="297"/>
      <point x="514" y="354"/>
      <point x="514" y="503" type="curve" smooth="yes"/>
      <point x="514" y="583" type="line" smooth="yes"/>
      <point x="514" y="732"/>
      <point x="434" y="800"/>
      <point x="286" y="800" type="curve" smooth="yes"/>
      <point x="80" y="800" type="line" smooth="yes"/>
      <point x="46" y="800"/>
      <point x="34" y="789"/>
      <point x="34" y="754" type="curve" smooth="yes"/>
      <point x="34" y="46" type="line" smooth="yes"/>
      <point x="34" y="11"/>
      <point x="46" y="0"/>
    </contour>
    <contour>
      <point x="274" y="457" type="line" smooth="yes"/>
      <point x="257" y="457"/>
      <point x="251" y="463"/>
      <point x="251" y="480" type="curve" smooth="yes"/>
      <point x="251" y="606" type="line" smooth="yes"/>
      <point x="251" y="623"/>
      <point x="257" y="629"/>
      <point x="274" y="629" type="curve" smooth="yes"/>
      <point x="286" y="629" type="line" smooth="yes"/>
      <point x="320" y="629"/>
      <point x="331" y="617"/>
      <point x="331" y="572" type="curve" smooth="yes"/>
      <point x="331" y="514" type="line" smooth="yes"/>
      <point x="331" y="469"/>
      <point x="320" y="457"/>
      <point x="286" y="457" type="curve" smooth="yes"/>
    </contour>
  </outline>
</glyph>
<glyph name="Q" format="2">
  <advance width="572"/>
  <unicode hex="0051"/>
  <outline>
    <contour>
      <point x="269" y="-11" type="curve" smooth="yes"/>
      <point x="346" y="-11"/>
      <point x="378" y="34"/>
      <point x="401" y="34" type="curve" smooth="yes"/>
      <point x="429" y="34"/>
      <point x="440" y="0"/>
      <point x="509" y="0" type="curve" smooth="yes"/>
      <point x="520" y="0" type="line" smooth="yes"/>
      <point x="554" y="0"/>
      <point x="560" y="11"/>
      <point x="560" y="46" type="curve" smooth="yes"/>
      <point x="560" y="137" type="line" smooth="yes"/>
      <point x="560" y="171"/>
      <point x="554" y="183"/>
      <point x="520" y="183" type="curve" smooth="yes"/>
      <point x="503" y="183"/>
      <point x="497" y="190"/>
      <point x="497" y="206" type="curve" smooth="yes"/>
      <point x="497" y="229"/>
      <point x="520" y="246"/>
      <point x="520" y="331" type="curve" smooth="yes"/>
      <point x="520" y="572" type="line" smooth="yes"/>
      <point x="520" y="732"/>
      <point x="429" y="812"/>
      <point x="269" y="812" type="curve" smooth="yes"/>
      <point x="109" y="812"/>
      <point x="17" y="732"/>
      <point x="17" y="572" type="curve" smooth="yes"/>
      <point x="17" y="229" type="line" smooth="yes"/>
      <point x="17" y="69"/>
      <point x="109" y="-11"/>
    </contour>
    <contour>
      <point x="269" y="160" type="curve" smooth="yes"/>
      <point x="234" y="160"/>
      <point x="223" y="183"/>
      <point x="223" y="217" type="curve" smooth="yes"/>
      <point x="223" y="583" type="line" smooth="yes"/>
      <point x="223" y="617"/>
      <point x="234" y="640"/>
      <point x="269" y="640" type="curve" smooth="yes"/>
      <point x="303" y="640"/>
      <point x="314" y="617"/>
      <point x="314" y="583" type="curve" smooth="yes"/>
      <point x="314" y="217" type="line" smooth="yes"/>
      <point x="314" y="183"/>
      <point x="303" y="160"/>
    </contour>
  </outline>
</glyph>
<glyph name="R" format="2">
  <advance width="560"/>
  <unicode hex="0052"/>
  <anchor x="286" y="0" name="bottom"/>
  <anchor x="286" y="800" name="top"/>
  <outline>
    <contour>
      <point x="80" y="0" type="curve" smooth="yes"/>
      <point x="194" y="0" type="line" smooth="yes"/>
      <point x="229" y="0"/>
      <point x="240" y="11"/>
      <point x="240" y="46" type="curve" smooth="yes"/>
      <point x="240" y="297" type="line" smooth="yes"/>
      <point x="240" y="314"/>
      <point x="246" y="320"/>
      <point x="263" y="320" type="curve" smooth="yes"/>
      <point x="286" y="320" type="line" smooth="yes"/>
      <point x="320" y="320"/>
      <point x="331" y="309"/>
      <point x="331" y="263" type="curve" smooth="yes"/>
      <point x="331" y="91" type="line" smooth="yes"/>
      <point x="331" y="34"/>
      <point x="343" y="0"/>
      <point x="400" y="0" type="curve" smooth="yes"/>
      <point x="491" y="0" type="line" smooth="yes"/>
      <point x="526" y="0"/>
      <point x="537" y="11"/>
      <point x="537" y="30" type="curve" smooth="yes"/>
      <point x="537" y="49"/>
      <point x="526" y="49"/>
      <point x="526" y="91" type="curve" smooth="yes"/>
      <point x="526" y="240" type="line" smooth="yes"/>
      <point x="526" y="306"/>
      <point x="507" y="346"/>
      <point x="470" y="377" type="curve" smooth="yes"/>
      <point x="450" y="393"/>
      <point x="448" y="395"/>
      <point x="448" y="401" type="curve" smooth="yes"/>
      <point x="448" y="407"/>
      <point x="456" y="411"/>
      <point x="470" y="425" type="curve" smooth="yes"/>
      <point x="504" y="457"/>
      <point x="526" y="499"/>
      <point x="526" y="560" type="curve" smooth="yes"/>
      <point x="526" y="583" type="line" smooth="yes"/>
      <point x="526" y="732"/>
      <point x="434" y="800"/>
      <point x="286" y="800" type="curve" smooth="yes"/>
      <point x="80" y="800" type="line" smooth="yes"/>
      <point x="46" y="800"/>
      <point x="34" y="789"/>
      <point x="34" y="754" type="curve" smooth="yes"/>
      <point x="34" y="46" type="line" smooth="yes"/>
      <point x="34" y="11"/>
      <point x="46" y="0"/>
    </contour>
    <contour>
      <point x="263" y="480" type="line" smooth="yes"/>
      <point x="246" y="480"/>
      <point x="240" y="486"/>
      <point x="240" y="503" type="curve" smooth="yes"/>
      <point x="240" y="606" type="line" smooth="yes"/>
      <point x="240" y="623"/>
      <point x="246" y="629"/>
      <point x="263" y="629" type="curve" smooth="yes"/>
      <point x="286" y="629" type="line" smooth="yes"/>
      <point x="320" y="629"/>
      <point x="331" y="617"/>
      <point x="331" y="572" type="curve" smooth="yes"/>
      <point x="331" y="537" type="line" smooth="yes"/>
      <point x="331" y="491"/>
      <point x="320" y="480"/>
      <point x="286" y="480" type="curve" smooth="yes"/>
    </contour>
  </outline>
</glyph>
<glyph name="S" format="2">
  <advance width="537"/>
  <unicode hex="0053"/>
  <anchor x="263" y="0" name="bottom"/>
  <anchor x="271" y="800" name="top"/>
  <outline>
    <contour>
      <point x="269" y="-11" type="curve" smooth="yes"/>
      <point x="423" y="-11"/>
      <point x="526" y="46"/>
      <point x="526" y="206" type="curve" smooth="yes"/>
      <point x="526" y="323"/>
      <point x="479" y="378"/>
      <point x="362" y="453" type="curve" smooth="yes"/>
      <point x="318" y="481" type="line" smooth="yes"/>
      <point x="235" y="534"/>
      <point x="229" y="555"/>
      <point x="229" y="594" type="curve" smooth="yes"/>
      <point x="229" y="623"/>
      <point x="241" y="640"/>
      <point x="269" y="640" type="curve" smooth="yes"/>
      <point x="298" y="640"/>
      <point x="311" y="623"/>
      <point x="311" y="594" type="curve" smooth="yes"/>
      <point x="311" y="583" type="line" smooth="yes"/>
      <point x="311" y="549"/>
      <point x="322" y="537"/>
      <point x="357" y="537" type="curve" smooth="yes"/>
      <point x="471" y="537" type="line" smooth="yes"/>
      <point x="505" y="537"/>
      <point x="517" y="549"/>
      <point x="517" y="583" type="curve" smooth="yes"/>
      <point x="517" y="732"/>
      <point x="431" y="812"/>
      <point x="269" y="812" type="curve" smooth="yes"/>
      <point x="111" y="812"/>
      <point x="23" y="732"/>
      <point x="23" y="594" type="curve" smooth="yes"/>
      <point x="23" y="488"/>
      <point x="63" y="408"/>
      <point x="153" y="349" type="curve" smooth="yes"/>
      <point x="206" y="314" type="line" smooth="yes"/>
      <point x="273" y="271"/>
      <point x="320" y="249"/>
      <point x="320" y="206" type="curve" smooth="yes"/>
      <point x="320" y="179"/>
      <point x="307" y="160"/>
      <point x="269" y="160" type="curve" smooth="yes"/>
      <point x="231" y="160"/>
      <point x="217" y="179"/>
      <point x="217" y="206" type="curve" smooth="yes"/>
      <point x="217" y="217" type="line" smooth="yes"/>
      <point x="217" y="251"/>
      <point x="206" y="263"/>
      <point x="171" y="263" type="curve" smooth="yes"/>
      <point x="57" y="263" type="line" smooth="yes"/>
      <point x="23" y="263"/>
      <point x="11" y="251"/>
      <point x="11" y="217" type="curve" smooth="yes"/>
      <point x="11" y="46"/>
      <point x="103" y="-11"/>
    </contour>
  </outline>
</glyph>
<glyph name="T" format="2">
  <advance width="503"/>
  <unicode hex="0054"/>
  <anchor x="251" y="0" name="bottom"/>
  <anchor x="251" y="800" name="top"/>
  <outline>
    <contour>
      <point x="189" y="0" type="curve" smooth="yes"/>
      <point x="314" y="0" type="line" smooth="yes"/>
      <point x="349" y="0"/>
      <point x="360" y="11"/>
      <point x="360" y="46" type="curve" smooth="yes"/>
      <point x="360" y="606" type="line" smooth="yes"/>
      <point x="360" y="623"/>
      <point x="366" y="629"/>
      <point x="383" y="629" type="curve" smooth="yes"/>
      <point x="434" y="629" type="line" smooth="yes"/>
      <point x="469" y="629"/>
      <point x="480" y="640"/>
      <point x="480" y="674" type="curve" smooth="yes"/>
      <point x="480" y="754" type="line" smooth="yes"/>
      <point x="480" y="789"/>
      <point x="469" y="800"/>
      <point x="434" y="800" type="curve" smooth="yes"/>
      <point x="69" y="800" type="line" smooth="yes"/>
      <point x="33" y="800"/>
      <point x="23" y="789"/>
      <point x="23" y="754" type="curve" smooth="yes"/>
      <point x="23" y="674" type="line" smooth="yes"/>
      <point x="23" y="646"/>
      <point x="34" y="629"/>
      <point x="69" y="629" type="curve" smooth="yes"/>
      <point x="120" y="629" type="line" smooth="yes"/>
      <point x="137" y="629"/>
      <point x="143" y="623"/>
      <point x="143" y="606" type="curve" smooth="yes"/>
      <point x="143" y="46" type="line" smooth="yes"/>
      <point x="143" y="11"/>
      <point x="154" y="0"/>
    </contour>
  </outline>
</glyph>
<glyph name="V" format="2">
  <advance width="549"/>
  <unicode hex="0056"/>
  <outline>
    <contour>
      <point x="274" y="171" type="curve" smooth="yes"/>
      <point x="267" y="171"/>
      <point x="264" y="179"/>
      <point x="263" y="194" type="curve" smooth="yes"/>
      <point x="219" y="754" type="line" smooth="yes"/>
      <point x="217" y="790"/>
      <point x="208" y="800"/>
      <point x="185" y="800" type="curve" smooth="yes"/>
      <point x="57" y="800" type="line" smooth="yes"/>
      <point x="23" y="800"/>
      <point x="11" y="789"/>
      <point x="11" y="754" type="curve" smooth="yes"/>
      <point x="11" y="732"/>
      <point x="19" y="686"/>
      <point x="23" y="663" type="curve" smooth="yes"/>
      <point x="114" y="46" type="line" smooth="yes"/>
      <point x="119" y="11"/>
      <point x="137" y="0"/>
      <point x="171" y="0" type="curve" smooth="yes"/>
      <point x="377" y="0" type="line" smooth="yes"/>
      <point x="411" y="0"/>
      <point x="430" y="11"/>
      <point x="434" y="46" type="curve" smooth="yes"/>
      <point x="526" y="663" type="line" smooth="yes"/>
      <point x="529" y="686"/>
      <point x="537" y="732"/>
      <point x="537" y="754" type="curve" smooth="yes"/>
      <point x="537" y="789"/>
      <point x="526" y="800"/>
      <point x="491" y="800" type="curve" smooth="yes"/>
      <point x="363" y="800" type="line" smooth="yes"/>
      <point x="341" y="800"/>
      <point x="331" y="790"/>
      <point x="329" y="754" type="curve" smooth="yes"/>
      <point x="286" y="194" type="line" smooth="yes"/>
      <point x="285" y="179"/>
      <point x="281" y="171"/>
    </contour>
  </outline>
</glyph>
<glyph name="Y" format="2">
  <advance width="560"/>
  <unicode hex="0059"/>
  <anchor x="280" y="800" name="top"/>
  <outline>
    <contour>
      <point x="217" y="0" type="curve" smooth="yes"/>
      <point x="343" y="0" type="line" smooth="yes"/>
      <point x="377" y="0"/>
      <point x="389" y="11"/>
      <point x="389" y="46" type="curve" smooth="yes"/>
      <point x="389" y="218" type="line" smooth="yes"/>
      <point x="389" y="232"/>
      <point x="391" y="248"/>
      <point x="394" y="261" type="curve" smooth="yes"/>
      <point x="538" y="719" type="line" smooth="yes"/>
      <point x="543" y="734"/>
      <point x="549" y="748"/>
      <point x="549" y="766" type="curve" smooth="yes"/>
      <point x="549" y="789"/>
      <point x="537" y="800"/>
      <point x="514" y="800" type="curve" smooth="yes"/>
      <point x="389" y="800" type="line" smooth="yes"/>
      <point x="357" y="800"/>
      <point x="347" y="789"/>
      <point x="343" y="766" type="curve" smooth="yes"/>
      <point x="297" y="534" type="line" smooth="yes"/>
      <point x="295" y="522"/>
      <point x="289" y="514"/>
      <point x="280" y="514" type="curve" smooth="yes"/>
      <point x="270" y="514"/>
      <point x="265" y="522"/>
      <point x="263" y="534" type="curve" smooth="yes"/>
      <point x="217" y="766" type="line" smooth="yes"/>
      <point x="213" y="789"/>
      <point x="203" y="800"/>
      <point x="171" y="800" type="curve" smooth="yes"/>
      <point x="46" y="800" type="line" smooth="yes"/>
      <point x="23" y="800"/>
      <point x="11" y="785"/>
      <point x="11" y="766" type="curve" smooth="yes"/>
      <point x="11" y="748"/>
      <point x="16" y="735"/>
      <point x="21" y="719" type="curve" smooth="yes"/>
      <point x="166" y="261" type="line" smooth="yes"/>
      <point x="169" y="248"/>
      <point x="171" y="232"/>
      <point x="171" y="218" type="curve" smooth="yes"/>
      <point x="171" y="46" type="line" smooth="yes"/>
      <point x="171" y="11"/>
      <point x="183" y="0"/>
    </contour>
  </outline>
</glyph>
<glyph name="Z" format="2">
  <advance width="491"/>
  <unicode hex="005A"/>
  <anchor x="257" y="800" name="top"/>
  <outline>
    <contour>
      <point x="57" y="0" type="curve" smooth="yes"/>
      <point x="434" y="0" type="line" smooth="yes"/>
      <point x="469" y="0"/>
      <point x="480" y="11"/>
      <point x="480" y="46" type="curve" smooth="yes"/>
      <point x="480" y="126" type="line" smooth="yes"/>
      <point x="480" y="160"/>
      <point x="469" y="171"/>
      <point x="433" y="171" type="curve" smooth="yes"/>
      <point x="265" y="171" type="line" smooth="yes"/>
      <point x="253" y="171"/>
      <point x="245" y="181"/>
      <point x="245" y="191" type="curve" smooth="yes"/>
      <point x="245" y="209"/>
      <point x="254" y="227"/>
      <point x="271" y="259" type="curve" smooth="yes"/>
      <point x="434" y="563" type="line" smooth="yes"/>
      <point x="463" y="617"/>
      <point x="480" y="653"/>
      <point x="480" y="692" type="curve" smooth="yes"/>
      <point x="480" y="754" type="line" smooth="yes"/>
      <point x="480" y="789"/>
      <point x="469" y="800"/>
      <point x="434" y="800" type="curve" smooth="yes"/>
      <point x="58" y="800" type="line" smooth="yes"/>
      <point x="23" y="800"/>
      <point x="11" y="789"/>
      <point x="11" y="754" type="curve" smooth="yes"/>
      <point x="11" y="674" type="line" smooth="yes"/>
      <point x="11" y="646"/>
      <point x="23" y="629"/>
      <point x="57" y="629" type="curve" smooth="yes"/>
      <point x="215" y="629" type="line" smooth="yes"/>
      <point x="241" y="629"/>
      <point x="249" y="625"/>
      <point x="249" y="613" type="curve" smooth="yes"/>
      <point x="249" y="596"/>
      <point x="238" y="580"/>
      <point x="230" y="565" type="curve" smooth="yes"/>
      <point x="55" y="258" type="line" smooth="yes"/>
      <point x="32" y="217"/>
      <point x="11" y="175"/>
      <point x="11" y="135" type="curve" smooth="yes"/>
      <point x="11" y="46" type="line" smooth="yes"/>
      <point x="11" y="11"/>
      <point x="23" y="0"/>
    </contour>
  </outline>
</glyph>
<glyph name="guillemetleft" format="2">
  <advance width="617"/>
  <unicode hex="00AB"/>
  <outline>
    <contour>
      <point x="23" y="354" type="curve" smooth="yes"/>
      <point x="23" y="336"/>
      <point x="26" y="317"/>
      <point x="34" y="303" type="curve" smooth="yes"/>
      <point x="159" y="91" type="line" smooth="yes"/>
      <point x="179" y="56"/>
      <point x="182" y="46"/>
      <point x="216" y="46" type="curve" smooth="yes"/>
      <point x="250" y="46" type="line" smooth="yes"/>
      <point x="280" y="46"/>
      <point x="297" y="54"/>
      <point x="297" y="79" type="curve" smooth="yes"/>
      <point x="297" y="85"/>
      <point x="298" y="91"/>
      <point x="295" y="97" type="curve" smooth="yes"/>
      <point x="170" y="309" type="line" smooth="yes"/>
      <point x="160" y="327"/>
      <point x="154" y="345"/>
      <point x="154" y="354" type="curve" smooth="yes"/>
      <point x="154" y="371"/>
      <point x="161" y="384"/>
      <point x="170" y="400" type="curve" smooth="yes"/>
      <point x="295" y="612" type="line" smooth="yes"/>
      <point x="298" y="617"/>
      <point x="297" y="624"/>
      <point x="297" y="630" type="curve" smooth="yes"/>
      <point x="297" y="655"/>
      <point x="280" y="663"/>
      <point x="250" y="663" type="curve" smooth="yes"/>
      <point x="216" y="663" type="line" smooth="yes"/>
      <point x="182" y="663"/>
      <point x="179" y="653"/>
      <point x="159" y="617" type="curve" smooth="yes"/>
      <point x="34" y="406" type="line" smooth="yes"/>
      <point x="29" y="395"/>
      <point x="23" y="375"/>
    </contour>
    <contour>
      <point x="320" y="354" type="curve" smooth="yes"/>
      <point x="320" y="336"/>
      <point x="323" y="317"/>
      <point x="331" y="303" type="curve" smooth="yes"/>
      <point x="456" y="91" type="line" smooth="yes"/>
      <point x="477" y="56"/>
      <point x="479" y="46"/>
      <point x="513" y="46" type="curve" smooth="yes"/>
      <point x="547" y="46" type="line" smooth="yes"/>
      <point x="577" y="46"/>
      <point x="594" y="54"/>
      <point x="594" y="79" type="curve" smooth="yes"/>
      <point x="594" y="85"/>
      <point x="596" y="91"/>
      <point x="592" y="97" type="curve" smooth="yes"/>
      <point x="467" y="309" type="line" smooth="yes"/>
      <point x="457" y="327"/>
      <point x="451" y="345"/>
      <point x="451" y="354" type="curve" smooth="yes"/>
      <point x="451" y="371"/>
      <point x="458" y="384"/>
      <point x="467" y="400" type="curve" smooth="yes"/>
      <point x="592" y="612" type="line" smooth="yes"/>
      <point x="596" y="617"/>
      <point x="594" y="624"/>
      <point x="594" y="630" type="curve" smooth="yes"/>
      <point x="594" y="655"/>
      <point x="577" y="663"/>
      <point x="547" y="663" type="curve" smooth="yes"/>
      <point x="513" y="663" type="line" smooth="yes"/>
      <point x="479" y="663"/>
      <point x="477" y="653"/>
      <point x="456" y="617" type="curve" smooth="yes"/>
      <point x="331" y="406" type="line" smooth="yes"/>
      <point x="326" y="395"/>
      <point x="320" y="375"/>
    </contour>
  </outline>
</glyph>
<glyph name="degree" format="2">
  <advance width="389"/>
  <unicode hex="00B0"/>
  <outline>
    <contour>
      <point x="194" y="469" type="curve" smooth="yes"/>
      <point x="289" y="469"/>
      <point x="366" y="545"/>
      <point x="366" y="640" type="curve" smooth="yes"/>
      <point x="366" y="735"/>
      <point x="289" y="812"/>
      <point x="194" y="812" type="curve" smooth="yes"/>
      <point x="99" y="812"/>
      <point x="23" y="735"/>
      <point x="23" y="640" type="curve" smooth="yes"/>
      <point x="23" y="545"/>
      <point x="99" y="469"/>
    </contour>
    <contour>
      <point x="194" y="549" type="curve" smooth="yes"/>
      <point x="144" y="549"/>
      <point x="103" y="590"/>
      <point x="103" y="640" type="curve" smooth="yes"/>
      <point x="103" y="690"/>
      <point x="144" y="732"/>
      <point x="194" y="732" type="curve" smooth="yes"/>
      <point x="245" y="732"/>
      <point x="286" y="690"/>
      <point x="286" y="640" type="curve" smooth="yes"/>
      <point x="286" y="590"/>
      <point x="245" y="549"/>
    </contour>
  </outline>
</glyph>
<glyph name="guillemetright" format="2">
  <advance width="617"/>
  <unicode hex="00BB"/>
  <outline>
    <contour>
      <point x="594" y="354" type="curve" smooth="yes"/>
      <point x="594" y="375"/>
      <point x="589" y="395"/>
      <point x="583" y="406" type="curve" smooth="yes"/>
      <point x="458" y="617" type="line" smooth="yes"/>
      <point x="438" y="653"/>
      <point x="435" y="663"/>
      <point x="401" y="663" type="curve" smooth="yes"/>
      <point x="367" y="663" type="line" smooth="yes"/>
      <point x="337" y="663"/>
      <point x="320" y="655"/>
      <point x="320" y="630" type="curve" smooth="yes"/>
      <point x="320" y="624"/>
      <point x="319" y="617"/>
      <point x="322" y="612" type="curve" smooth="yes"/>
      <point x="447" y="400" type="line" smooth="yes"/>
      <point x="456" y="384"/>
      <point x="463" y="371"/>
      <point x="463" y="354" type="curve" smooth="yes"/>
      <point x="463" y="345"/>
      <point x="457" y="327"/>
      <point x="447" y="309" type="curve" smooth="yes"/>
      <point x="322" y="97" type="line" smooth="yes"/>
      <point x="319" y="91"/>
      <point x="320" y="85"/>
      <point x="320" y="79" type="curve" smooth="yes"/>
      <point x="320" y="54"/>
      <point x="337" y="46"/>
      <point x="367" y="46" type="curve" smooth="yes"/>
      <point x="401" y="46" type="line" smooth="yes"/>
      <point x="435" y="46"/>
      <point x="438" y="56"/>
      <point x="458" y="91" type="curve" smooth="yes"/>
      <point x="583" y="303" type="line" smooth="yes"/>
      <point x="591" y="317"/>
      <point x="594" y="336"/>
    </contour>
    <contour>
      <point x="297" y="354" type="curve" smooth="yes"/>
      <point x="297" y="375"/>
      <point x="291" y="395"/>
      <point x="286" y="406" type="curve" smooth="yes"/>
      <point x="161" y="617" type="line" smooth="yes"/>
      <point x="141" y="653"/>
      <point x="138" y="663"/>
      <point x="104" y="663" type="curve" smooth="yes"/>
      <point x="70" y="663" type="line" smooth="yes"/>
      <point x="40" y="663"/>
      <point x="23" y="655"/>
      <point x="23" y="630" type="curve" smooth="yes"/>
      <point x="23" y="624"/>
      <point x="22" y="617"/>
      <point x="25" y="612" type="curve" smooth="yes"/>
      <point x="150" y="400" type="line" smooth="yes"/>
      <point x="159" y="384"/>
      <point x="166" y="371"/>
      <point x="166" y="354" type="curve" smooth="yes"/>
      <point x="166" y="345"/>
      <point x="160" y="327"/>
      <point x="150" y="309" type="curve" smooth="yes"/>
      <point x="25" y="97" type="line" smooth="yes"/>
      <point x="22" y="91"/>
      <point x="23" y="85"/>
      <point x="23" y="79" type="curve" smooth="yes"/>
      <point x="23" y="54"/>
      <point x="40" y="46"/>
      <point x="70" y="46" type="curve" smooth="yes"/>
      <point x="104" y="46" type="line" smooth="yes"/>
      <point x="138" y="46"/>
      <point x="141" y="56"/>
      <point x="161" y="91" type="curve" smooth="yes"/>
      <point x="286" y="303" type="line" smooth="yes"/>
      <point x="294" y="317"/>
      <point x="297" y="336"/>
    </contour>
  </outline>
</glyph>
<glyph name="Aogonek" format="2">
  <advance width="549"/>
  <unicode hex="0104"/>
  <outline>
    <contour>
      <point x="57" y="0" type="curve" smooth="yes"/>
      <point x="185" y="0" type="line" smooth="yes"/>
      <point x="208" y="0"/>
      <point x="216" y="10"/>
      <point x="219" y="46" type="curve" smooth="yes"/>
      <point x="229" y="137" type="line" smooth="yes"/>
      <point x="231" y="154"/>
      <point x="234" y="160"/>
      <point x="251" y="160" type="curve" smooth="yes"/>
      <point x="297" y="160" type="line" smooth="yes"/>
      <point x="314" y="160"/>
      <point x="318" y="154"/>
      <point x="320" y="137" type="curve" smooth="yes"/>
      <point x="329" y="46" type="line" smooth="yes"/>
      <point x="333" y="10"/>
      <point x="359" y="10"/>
      <point x="359" y="-11" type="curve" smooth="yes"/>
      <point x="359" y="-34"/>
      <point x="318" y="-45"/>
      <point x="318" y="-106" type="curve" smooth="yes"/>
      <point x="318" y="-169"/>
      <point x="379" y="-200"/>
      <point x="491" y="-200" type="curve" smooth="yes"/>
      <point x="507" y="-200"/>
      <point x="514" y="-189"/>
      <point x="514" y="-177" type="curve" smooth="yes"/>
      <point x="514" y="-119" type="line" smooth="yes"/>
      <point x="514" y="-105"/>
      <point x="507" y="-96"/>
      <point x="491" y="-96" type="curve" smooth="yes"/>
      <point x="455" y="-96"/>
      <point x="423" y="-81"/>
      <point x="423" y="-58" type="curve" smooth="yes"/>
      <point x="423" y="-31"/>
      <point x="456" y="0"/>
      <point x="491" y="0" type="curve" smooth="yes"/>
      <point x="526" y="0"/>
      <point x="537" y="11"/>
      <point x="537" y="46" type="curve" smooth="yes"/>
      <point x="537" y="69"/>
      <point x="529" y="114"/>
      <point x="526" y="137" type="curve" smooth="yes"/>
      <point x="434" y="754" type="line" smooth="yes"/>
      <point x="430" y="789"/>
      <point x="411" y="800"/>
      <point x="377" y="800" type="curve" smooth="yes"/>
      <point x="171" y="800" type="line" smooth="yes"/>
      <point x="137" y="800"/>
      <point x="119" y="789"/>
      <point x="114" y="754" type="curve" smooth="yes"/>
      <point x="23" y="137" type="line" smooth="yes"/>
      <point x="19" y="114"/>
      <point x="11" y="69"/>
      <point x="11" y="46" type="curve" smooth="yes"/>
      <point x="11" y="11"/>
      <point x="23" y="0"/>
    </contour>
    <contour>
      <point x="263" y="331" type="line" smooth="yes"/>
      <point x="245" y="331"/>
      <point x="240" y="337"/>
      <point x="240" y="350" type="curve" smooth="yes"/>
      <point x="240" y="358"/>
      <point x="241" y="366"/>
      <point x="242" y="378" type="curve" smooth="yes"/>
      <point x="263" y="606" type="line" smooth="yes"/>
      <point x="264" y="621"/>
      <point x="267" y="629"/>
      <point x="274" y="629" type="curve" smooth="yes"/>
      <point x="281" y="629"/>
      <point x="285" y="621"/>
      <point x="286" y="606" type="curve" smooth="yes"/>
      <point x="306" y="378" type="line" smooth="yes"/>
      <point x="307" y="366"/>
      <point x="309" y="358"/>
      <point x="309" y="350" type="curve" smooth="yes"/>
      <point x="309" y="337"/>
      <point x="303" y="331"/>
      <point x="286" y="331" type="curve" smooth="yes"/>
    </contour>
  </outline>
</glyph>
<glyph name="ij" format="2">
  <advance width="512"/>
  <unicode hex="0133"/>
  <anchor x="126" y="800" name="top"/>
  <outline>
    <contour>
      <point x="69" y="229" type="curve" smooth="yes"/>
      <point x="183" y="229" type="line" smooth="yes"/>
      <point x="217" y="229"/>
      <point x="229" y="240"/>
      <point x="229" y="274" type="curve" smooth="yes"/>
      <point x="229" y="754" type="line" smooth="yes"/>
      <point x="229" y="789"/>
      <point x="217" y="800"/>
      <point x="183" y="800" type="curve" smooth="yes"/>
      <point x="69" y="800" type="line" smooth="yes"/>
      <point x="34" y="800"/>
      <point x="23" y="789"/>
      <point x="23" y="754" type="curve" smooth="yes"/>
      <point x="23" y="274" type="line" smooth="yes"/>
      <point x="23" y="240"/>
      <point x="34" y="229"/>
    </contour>
    <contour>
      <point x="69" y="0" type="curve" smooth="yes"/>
      <point x="321" y="0" type="line" smooth="yes"/>
      <point x="481" y="0"/>
      <point x="491" y="69"/>
      <point x="491" y="229" type="curve" smooth="yes"/>
      <point x="491" y="754" type="line" smooth="yes"/>
      <point x="491" y="789"/>
      <point x="480" y="800"/>
      <point x="446" y="800" type="curve" smooth="yes"/>
      <point x="331" y="800" type="line" smooth="yes"/>
      <point x="297" y="800"/>
      <point x="286" y="789"/>
      <point x="286" y="754" type="curve" smooth="yes"/>
      <point x="286" y="194" type="line" smooth="yes"/>
      <point x="286" y="177"/>
      <point x="280" y="171"/>
      <point x="263" y="171" type="curve" smooth="yes"/>
      <point x="69" y="171" type="line" smooth="yes"/>
      <point x="34" y="171"/>
      <point x="23" y="160"/>
      <point x="23" y="126" type="curve" smooth="yes"/>
      <point x="23" y="46" type="line" smooth="yes"/>
      <point x="23" y="11"/>
      <point x="34" y="0"/>
    </contour>
  </outline>
</glyph>
<glyph name="OE" format="2">
  <advance width="734"/>
  <unicode hex="0152"/>
  <outline>
    <contour>
      <point x="271" y="-11" type="curve" smooth="yes"/>
      <point x="306" y="-11"/>
      <point x="336" y="0"/>
      <point x="366" y="0" type="curve" smooth="yes"/>
      <point x="671" y="0" type="line" smooth="yes"/>
      <point x="705" y="0"/>
      <point x="717" y="11"/>
      <point x="717" y="46" type="curve" smooth="yes"/>
      <point x="717" y="126" type="line" smooth="yes"/>
      <point x="717" y="160"/>
      <point x="705" y="171"/>
      <point x="671" y="171" type="curve" smooth="yes"/>
      <point x="545" y="171" type="line" smooth="yes"/>
      <point x="528" y="171"/>
      <point x="522" y="177"/>
      <point x="522" y="194" type="curve" smooth="yes"/>
      <point x="522" y="309" type="line" smooth="yes"/>
      <point x="522" y="326"/>
      <point x="528" y="331"/>
      <point x="545" y="331" type="curve" smooth="yes"/>
      <point x="625" y="331" type="line" smooth="yes"/>
      <point x="660" y="331"/>
      <point x="671" y="343"/>
      <point x="671" y="377" type="curve" smooth="yes"/>
      <point x="671" y="446" type="line" smooth="yes"/>
      <point x="671" y="480"/>
      <point x="660" y="491"/>
      <point x="625" y="491" type="curve" smooth="yes"/>
      <point x="545" y="491" type="line" smooth="yes"/>
      <point x="528" y="491"/>
      <point x="522" y="497"/>
      <point x="522" y="514" type="curve" smooth="yes"/>
      <point x="522" y="606" type="line" smooth="yes"/>
      <point x="522" y="623"/>
      <point x="528" y="629"/>
      <point x="545" y="629" type="curve" smooth="yes"/>
      <point x="671" y="629" type="line" smooth="yes"/>
      <point x="705" y="629"/>
      <point x="717" y="640"/>
      <point x="717" y="674" type="curve" smooth="yes"/>
      <point x="717" y="754" type="line" smooth="yes"/>
      <point x="717" y="789"/>
      <point x="705" y="800"/>
      <point x="671" y="800" type="curve" smooth="yes"/>
      <point x="366" y="800" type="line" smooth="yes"/>
      <point x="336" y="800"/>
      <point x="306" y="812"/>
      <point x="271" y="812" type="curve" smooth="yes"/>
      <point x="111" y="812"/>
      <point x="19" y="732"/>
      <point x="19" y="572" type="curve" smooth="yes"/>
      <point x="19" y="229" type="line" smooth="yes"/>
      <point x="19" y="69"/>
      <point x="111" y="-11"/>
    </contour>
    <contour>
      <point x="225" y="217" type="curve" smooth="yes"/>
      <point x="225" y="583" type="line" smooth="yes"/>
      <point x="225" y="617"/>
      <point x="237" y="640"/>
      <point x="271" y="640" type="curve" smooth="yes"/>
      <point x="305" y="640"/>
      <point x="317" y="617"/>
      <point x="317" y="583" type="curve" smooth="yes"/>
      <point x="317" y="217" type="line" smooth="yes"/>
      <point x="317" y="183"/>
      <point x="305" y="160"/>
      <point x="271" y="160" type="curve" smooth="yes"/>
      <point x="237" y="160"/>
      <point x="225" y="183"/>
    </contour>
  </outline>
</glyph>
<glyph name="hungarumlaut" format="2">
  <advance width="686"/>
  <unicode hex="02DD"/>
  <outline>
    <contour>
      <point x="141" y="629" type="curve" smooth="yes"/>
      <point x="221" y="629" type="line" smooth="yes"/>
      <point x="232" y="629"/>
      <point x="243" y="628"/>
      <point x="263" y="652" type="curve" smooth="yes"/>
      <point x="327" y="733" type="line" smooth="yes"/>
      <point x="336" y="745"/>
      <point x="343" y="753"/>
      <point x="343" y="765" type="curve" smooth="yes"/>
      <point x="343" y="781"/>
      <point x="331" y="788"/>
      <point x="309" y="788" type="curve" smooth="yes"/>
      <point x="209" y="788" type="line" smooth="yes"/>
      <point x="186" y="788"/>
      <point x="181" y="789"/>
      <point x="163" y="753" type="curve" smooth="yes"/>
      <point x="129" y="681" type="line" smooth="yes"/>
      <point x="121" y="664"/>
      <point x="118" y="657"/>
      <point x="118" y="652" type="curve" smooth="yes"/>
      <point x="118" y="640"/>
      <point x="123" y="629"/>
    </contour>
    <contour>
      <point x="369" y="629" type="curve" smooth="yes"/>
      <point x="449" y="629" type="line" smooth="yes"/>
      <point x="461" y="629"/>
      <point x="472" y="628"/>
      <point x="491" y="652" type="curve" smooth="yes"/>
      <point x="555" y="733" type="line" smooth="yes"/>
      <point x="565" y="745"/>
      <point x="572" y="753"/>
      <point x="572" y="765" type="curve" smooth="yes"/>
      <point x="572" y="781"/>
      <point x="560" y="788"/>
      <point x="537" y="788" type="curve" smooth="yes"/>
      <point x="438" y="788" type="line" smooth="yes"/>
      <point x="415" y="788"/>
      <point x="409" y="789"/>
      <point x="392" y="753" type="curve" smooth="yes"/>
      <point x="358" y="681" type="line" smooth="yes"/>
      <point x="350" y="664"/>
      <point x="346" y="657"/>
      <point x="346" y="652" type="curve" smooth="yes"/>
      <point x="346" y="640"/>
      <point x="352" y="629"/>
    </contour>
  </outline>
</glyph>
<glyph name="minus" format="2">
  <advance width="594"/>
  <unicode hex="2212"/>
  <outline>
    <contour>
      <point x="69" y="320" type="curve" smooth="yes"/>
      <point x="526" y="320" type="line" smooth="yes"/>
      <point x="560" y="320"/>
      <point x="572" y="331"/>
      <point x="572" y="366" type="curve" smooth="yes"/>
      <point x="572" y="434" type="line" smooth="yes"/>
      <point x="572" y="469"/>
      <point x="560" y="480"/>
      <point x="526" y="480" type="curve" smooth="yes"/>
      <point x="69" y="480" type="line" smooth="yes"/>
      <point x="34" y="480"/>
      <point x="23" y="469"/>
      <point x="23" y="434" type="curve" smooth="yes"/>
      <point x="23" y="366" type="line" smooth="yes"/>
      <point x="23" y="331"/>
      <point x="34" y="320"/>
    </contour>
  </outline>
</glyph>
<glyph name="macroncomb.case" format="2">
  <anchor x="200" y="800" name="_top"/>
  <anchor x="200" y="973" name="top"/>
  <outline>
    <contour>
      <point x="25" y="846" type="curve" smooth="yes"/>
      <point x="374" y="846" type="line" smooth="yes"/>
      <point x="389" y="846"/>
      <point x="400" y="856"/>
      <point x="400" y="871" type="curve" smooth="yes"/>
      <point x="400" y="949" type="line" smooth="yes"/>
      <point x="400" y="964"/>
      <point x="389" y="975"/>
      <point x="374" y="975" type="curve" smooth="yes"/>
      <point x="25" y="975" type="line" smooth="yes"/>
      <point x="10" y="975"/>
      <point x="0" y="964"/>
      <point x="0" y="949" type="curve" smooth="yes"/>
      <point x="0" y="871" type="line" smooth="yes"/>
      <point x="0" y="856"/>
      <point x="10" y="846"/>
    </contour>
  </outline>
</glyph>
